<?xml version="1.0" standalone="no"?>
<!DOCTYPE svg PUBLIC "-//W3C//DTD SVG 20010904//EN"
 "http://www.w3.org/TR/2001/REC-SVG-20010904/DTD/svg10.dtd">
<svg version="1.0" xmlns="http://www.w3.org/2000/svg"
 width="336.000000pt" height="336.000000pt" viewBox="0 0 336.000000 336.000000"
 preserveAspectRatio="xMidYMid meet">
<metadata>
Created by potrace 1.11, written by Peter Selinger 2001-2013
</metadata>
<g transform="translate(0.000000,336.000000) scale(0.100000,-0.100000)"
fill="#000000" stroke="none">
<path d="M2740 2815 c-18 -10 -32 -44 -70 -171 -27 -88 -89 -292 -140 -454
-50 -162 -109 -353 -131 -425 -71 -229 -121 -380 -131 -390 -6 -6 -7 36 -3
110 6 122 9 237 21 680 l6 250 -26 26 c-47 48 -155 48 -194 1 -29 -35 -149
-241 -196 -337 -8 -16 -46 -88 -85 -159 -39 -71 -71 -131 -71 -132 0 -2 -22
-38 -48 -79 l-48 -75 -21 22 c-51 56 -132 246 -147 348 -9 57 -35 108 -59 116
-10 3 -42 -6 -71 -20 -52 -26 -101 -71 -186 -176 -118 -144 -189 -220 -206
-220 -13 0 -34 57 -34 92 0 27 -20 63 -42 77 -55 34 -105 16 -185 -69 -91 -98
-146 -111 -272 -64 -107 40 -145 20 -158 -83 l-5 -50 57 -36 c101 -63 201 -72
300 -27 47 21 126 76 133 93 8 16 21 5 31 -25 6 -18 20 -78 32 -133 11 -55 30
-122 41 -148 20 -46 22 -48 52 -42 57 12 128 70 219 178 131 157 160 187 175
187 13 0 35 -54 100 -257 46 -142 86 -264 88 -270 4 -15 64 -42 80 -36 6 2 23
25 38 51 15 26 35 59 44 74 62 97 228 375 230 385 2 7 8 13 13 13 5 0 9 5 9
10 0 17 57 103 62 94 14 -24 21 -187 23 -586 3 -312 7 -443 16 -460 20 -40
112 -119 167 -144 50 -23 54 -23 78 -8 14 9 33 35 43 58 24 52 243 691 256
746 11 48 110 320 117 320 4 0 5 -17 3 -37 -2 -21 -6 -83 -10 -138 -4 -55 -9
-104 -12 -108 -7 -12 33 -42 128 -97 90 -52 151 -81 183 -87 28 -5 76 52 122
148 23 46 50 91 60 100 11 9 62 24 114 33 143 25 130 15 129 109 -1 45 -4 93
-8 107 -13 46 -94 57 -205 29 -66 -18 -115 -57 -147 -120 -30 -61 -51 -83 -44
-49 2 12 7 83 10 158 3 75 7 160 10 187 2 28 6 93 10 145 7 111 14 201 20 250
2 19 7 69 11 110 3 41 8 84 10 95 2 11 4 60 5 108 0 73 -4 97 -23 135 -21 42
-28 48 -73 60 -69 18 -168 22 -195 7z"/>
<path d="M35 1758 c-65 -38 -36 -108 48 -112 41 -3 51 0 67 22 25 31 25 54 0
77 -24 22 -88 29 -115 13z"/>
</g>
</svg>
